<svg width="57" height="56" viewBox="0 0 57 56" fill="none" xmlns="http://www.w3.org/2000/svg">
<mask id="path-1-inside-1_7_1136" fill="white">
<path d="M10.5851 32.7873C9.41128 33.1454 8.73045 34.3837 9.20059 35.5135C10.5335 38.7166 12.6904 41.5145 15.4699 43.6146C18.8364 46.1581 22.9402 47.5449 27.183 47.5728C31.4259 47.6007 35.5859 46.2683 39.0567 43.7698C42.5275 41.2712 45.1274 37.7373 46.4776 33.6831C47.8278 29.6289 47.8575 25.2665 46.5625 21.2319C45.2675 17.1972 42.7154 13.7013 39.2784 11.2537C35.8413 8.80622 31.699 7.53507 27.4554 7.62562C23.9453 7.70051 20.5177 8.70377 17.5127 10.516C16.4653 11.1476 16.2782 12.5433 17.0116 13.5188C17.7545 14.5069 19.1578 14.6844 20.2399 14.0811C22.4564 12.8455 24.9438 12.1628 27.487 12.1085C30.7781 12.0383 33.9906 13.0241 36.6561 14.9223C39.3217 16.8204 41.3009 19.5316 42.3052 22.6606C43.3096 25.7897 43.2865 29.1729 42.2394 32.317C41.1923 35.4612 39.1759 38.2019 36.4842 40.1396C33.7925 42.0772 30.5663 43.1106 27.2758 43.0889C23.9853 43.0673 20.8027 41.9918 18.1919 40.0192C16.1854 38.5033 14.5974 36.5184 13.5536 34.2477C13.0322 33.1136 11.7823 32.422 10.5851 32.7873Z"/>
</mask>
<path d="M10.5851 32.7873C9.41128 33.1454 8.73045 34.3837 9.20059 35.5135C10.5335 38.7166 12.6904 41.5145 15.4699 43.6146C18.8364 46.1581 22.9402 47.5449 27.183 47.5728C31.4259 47.6007 35.5859 46.2683 39.0567 43.7698C42.5275 41.2712 45.1274 37.7373 46.4776 33.6831C47.8278 29.6289 47.8575 25.2665 46.5625 21.2319C45.2675 17.1972 42.7154 13.7013 39.2784 11.2537C35.8413 8.80622 31.699 7.53507 27.4554 7.62562C23.9453 7.70051 20.5177 8.70377 17.5127 10.516C16.4653 11.1476 16.2782 12.5433 17.0116 13.5188C17.7545 14.5069 19.1578 14.6844 20.2399 14.0811C22.4564 12.8455 24.9438 12.1628 27.487 12.1085C30.7781 12.0383 33.9906 13.0241 36.6561 14.9223C39.3217 16.8204 41.3009 19.5316 42.3052 22.6606C43.3096 25.7897 43.2865 29.1729 42.2394 32.317C41.1923 35.4612 39.1759 38.2019 36.4842 40.1396C33.7925 42.0772 30.5663 43.1106 27.2758 43.0889C23.9853 43.0673 20.8027 41.9918 18.1919 40.0192C16.1854 38.5033 14.5974 36.5184 13.5536 34.2477C13.0322 33.1136 11.7823 32.422 10.5851 32.7873Z" fill="#ADD0FF" stroke="#ADD0FF" stroke-width="0.727117" mask="url(#path-1-inside-1_7_1136)"/>
<path d="M33.1472 13.6294L25.5278 21.9953C25.3844 22.1527 25.4062 22.3988 25.5751 22.5282L34.8887 29.662" stroke="#ADD0FF" stroke-width="5.08982" stroke-linecap="round"/>
<path d="M23.0694 43.4271L30.6502 35.0265C30.7929 34.8684 30.7699 34.6224 30.6005 34.4939L21.2542 27.4025" stroke="#ADD0FF" stroke-width="5.08982" stroke-linecap="round"/>
<rect x="3.5184" y="2.2767" width="50.6392" height="50.6392" rx="5.03633" stroke="#ADD0FF" stroke-width="4.55339"/>
</svg>
